<?xml version="1.0" encoding="UTF-8"?>
<svg xmlns="http://www.w3.org/2000/svg" viewBox="0 0 512 512" width="512" height="512"><defs><linearGradient id="bronzeGrad" x1="0%" y1="0%" x2="100%" y2="100%"><stop offset="0%" stop-color="#cd7f32" /><stop offset="25%" stop-color="#daa520" /><stop offset="50%" stop-color="#b8860b" /><stop offset="75%" stop-color="#8b4513" /><stop offset="100%" stop-color="#cd7f32" /></linearGradient><linearGradient id="copperGrad" x1="0%" y1="0%" x2="100%" y2="100%"><stop offset="0%" stop-color="#ffcc99" /><stop offset="50%" stop-color="#ff9966" /><stop offset="100%" stop-color="#cc6633" /></linearGradient><filter id="embossBronze"><feGaussianBlur in="SourceAlpha" stdDeviation="3" result="blur" /><feSpecularLighting in="blur" surfaceScale="5" specularConstant="1.0" specularExponent="20" lighting-color="#ffddaa" result="spec" /><feComposite in="spec" in2="SourceAlpha" operator="in" result="specOut" /><feComposite in="SourceGraphic" in2="specOut" operator="arithmetic" k1="0" k2="1" k3="1" k4="0" /></filter><filter id="dropShadowBronze"><feDropShadow dx="6" dy="6" stdDeviation="10" flood-opacity="0.5" flood-color="#3d1f00" /></filter></defs><polygon points="256,30 472,155 472,360 256,485 40,360 40,155" fill="url(#bronzeGrad)" stroke="#8b4513" stroke-width="10" filter="url(#dropShadowBronze)" /><polygon points="256,55 447,165 447,350 256,460 65,350 65,165" fill="none" stroke="url(#copperGrad)" stroke-width="6" filter="url(#embossBronze)" /><rect x="90" y="360" width="90" height="70" rx="12" fill="#2c1810" stroke="#cd7f32" stroke-width="5" filter="url(#dropShadowBronze)" /><circle cx="135" cy="330" r="30" fill="#4a3728" stroke="url(#copperGrad)" stroke-width="5" filter="url(#embossBronze)" /><path d="M135 330 L200 220" stroke="#2c1810" stroke-width="28" stroke-linecap="round" filter="url(#dropShadowBronze)" /><circle cx="200" cy="220" r="24" fill="#4a3728" stroke="url(#copperGrad)" stroke-width="4" filter="url(#embossBronze)" /><path d="M200 220 L310 185" stroke="#2c1810" stroke-width="24" stroke-linecap="round" filter="url(#dropShadowBronze)" /><rect x="300" y="160" width="50" height="50" rx="10" fill="url(#copperGrad)" stroke="#8b4513" stroke-width="4" filter="url(#embossBronze)" /><path d="M80 420 Q256 465 432 420" stroke="#ffcc99" stroke-width="10" fill="none" stroke-dasharray="20,10" filter="url(#embossBronze)" opacity="0.8" /><path d="M395 410 L432 420 L395 430" fill="#ffcc99" filter="url(#dropShadowBronze)" /><text x="95" y="405" fill="#ffcc99" font-family="Arial Black, Impact, sans-serif" font-size="24" font-weight="bold" text-anchor="middle">SIM</text><text x="417" y="405" fill="#ffcc99" font-family="Arial Black, Impact, sans-serif" font-size="24" font-weight="bold" text-anchor="middle">REAL</text><rect x="90" y="430" width="332" height="50" rx="8" fill="#2c1810" stroke="url(#copperGrad)" stroke-width="3" filter="url(#dropShadowBronze)" /><text x="256" y="468" fill="url(#copperGrad)" font-family="Arial Black, Impact, sans-serif" font-size="28" font-weight="bold" text-anchor="middle" letter-spacing="3">SIM2REAL</text></svg>